# xmcd CD database file
#
# Track frame offsets:
#	150
#	18527
#	36414
#	59316
#	78114
#	97561
#	111206
#	128045
#	146282
#	165782
#	184783
#	206221
#	223316
#	245974
#	260969
#	277621
#	287156
#	313290
#	342021
#	345827
#
# Disc length: 4742 seconds
#
# Revision: 0
# Processed by: cddbd v1.5.1PL0 Copyright (c) Steve Scherf et al.
# Submitted via: CDex 1.51
#
DISCID=25128414
DTITLE=WOODSOFT - マイコソBASICmagazime
DYEAR=2005
DGENRE=Game
TTITLE0=THE TOWER OF DRUAGA
TTITLE1=TINY XEVIOUS
TTITLE2=DRAGON SPIRIT 「VOLCANO」
TTITLE3=チェルノブ-戦う人間発電所 「CHELNOV THEME」
TTITLE4=bosconian-X68k 「FLASH FLASH FLASH」
TTITLE5=ファンタジーゾーン
TTITLE6=「Pac project」
TTITLE7=イース 「SEE YOU AGAIN」
TTITLE8=MAPPY
TTITLE9=DRAGON SPIRIT 「GLACIER LAND」
TTITLE10=「Photologics」
TTITLE11=テラクレスタ 「メインBGM」
TTITLE12=AFTER BURNER 「RED OUT」
TTITLE13=イース 「FIRST STEP TOWARDS WARS」
TTITLE14=イース 「TOWER OF THE SHADOW OF DEATH」
TTITLE15=DRAGON SPIRIT 「ZAWELL」
TTITLE16=AFTER BURNER 「AFTER BURNER」
TTITLE17=スペースハリアー 「MAIN THEME」
TTITLE18=パソコンサンデー 〜オープニング〜
TTITLE19=イース 〜フェルガナの誓い〜 イルバーンズの遺跡
EXTD=YEAR: 2005
EXTT0=
EXTT1=
EXTT2=
EXTT3=
EXTT4=
EXTT5=
EXTT6=
EXTT7=
EXTT8=
EXTT9=
EXTT10=
EXTT11=
EXTT12=
EXTT13=
EXTT14=
EXTT15=
EXTT16=
EXTT17=
EXTT18=
EXTT19=
PLAYORDER=
